<mxfile host="app.diagrams.net" modified="2024-07-13T04:09:00.961Z" agent="Mozilla/5.0 (Windows NT 10.0; Win64; x64) AppleWebKit/537.36 (KHTML, like Gecko) Chrome/126.0.0.0 Safari/537.36" etag="XqRxSmCtjZE1EQqG9vzc" version="24.6.5" type="device">
  <diagram name="Page-1" id="bYbjKk4O3d11kCLqp3ZB">
    <mxGraphModel dx="1697" dy="447" grid="1" gridSize="10" guides="1" tooltips="1" connect="1" arrows="1" fold="1" page="1" pageScale="1" pageWidth="850" pageHeight="1100" math="0" shadow="0">
      <root>
        <mxCell id="0" />
        <mxCell id="1" parent="0" />
        <mxCell id="Lb1ExXF3cI1Xt6HcczxU-12" value="range/view" style="ellipse;whiteSpace=wrap;html=1;align=center;newEdgeStyle={&quot;edgeStyle&quot;:&quot;entityRelationEdgeStyle&quot;,&quot;startArrow&quot;:&quot;none&quot;,&quot;endArrow&quot;:&quot;none&quot;,&quot;segment&quot;:10,&quot;curved&quot;:1,&quot;sourcePerimeterSpacing&quot;:0,&quot;targetPerimeterSpacing&quot;:0};treeFolding=1;treeMoving=1;strokeWidth=2;" parent="1" vertex="1">
          <mxGeometry x="210" y="490" width="100" height="40" as="geometry" />
        </mxCell>
        <mxCell id="Lb1ExXF3cI1Xt6HcczxU-13" value="subrange" style="whiteSpace=wrap;html=1;rounded=1;arcSize=50;align=center;verticalAlign=middle;strokeWidth=1;autosize=1;spacing=4;treeFolding=1;treeMoving=1;newEdgeStyle={&quot;edgeStyle&quot;:&quot;entityRelationEdgeStyle&quot;,&quot;startArrow&quot;:&quot;none&quot;,&quot;endArrow&quot;:&quot;none&quot;,&quot;segment&quot;:10,&quot;curved&quot;:1,&quot;sourcePerimeterSpacing&quot;:0,&quot;targetPerimeterSpacing&quot;:0};" parent="1" vertex="1">
          <mxGeometry x="330" y="440" width="90" height="30" as="geometry" />
        </mxCell>
        <mxCell id="Lb1ExXF3cI1Xt6HcczxU-14" value="" style="edgeStyle=entityRelationEdgeStyle;startArrow=none;endArrow=none;segment=10;curved=1;sourcePerimeterSpacing=0;targetPerimeterSpacing=0;rounded=0;" parent="1" source="Lb1ExXF3cI1Xt6HcczxU-12" target="Lb1ExXF3cI1Xt6HcczxU-13" edge="1">
          <mxGeometry relative="1" as="geometry">
            <mxPoint x="340" y="300" as="sourcePoint" />
          </mxGeometry>
        </mxCell>
        <mxCell id="Lb1ExXF3cI1Xt6HcczxU-15" value="take, take_while" style="whiteSpace=wrap;html=1;shape=partialRectangle;top=0;left=0;bottom=1;right=0;points=[[0,1],[1,1]];fillColor=none;align=center;verticalAlign=bottom;routingCenterY=0.5;snapToPoint=1;recursiveResize=0;autosize=1;treeFolding=1;treeMoving=1;newEdgeStyle={&quot;edgeStyle&quot;:&quot;entityRelationEdgeStyle&quot;,&quot;startArrow&quot;:&quot;none&quot;,&quot;endArrow&quot;:&quot;none&quot;,&quot;segment&quot;:10,&quot;curved&quot;:1,&quot;sourcePerimeterSpacing&quot;:0,&quot;targetPerimeterSpacing&quot;:0};" parent="1" vertex="1">
          <mxGeometry x="445" y="370" width="130" height="30" as="geometry" />
        </mxCell>
        <mxCell id="Lb1ExXF3cI1Xt6HcczxU-16" value="" style="edgeStyle=entityRelationEdgeStyle;startArrow=none;endArrow=none;segment=10;curved=1;sourcePerimeterSpacing=0;targetPerimeterSpacing=0;rounded=0;exitX=1;exitY=0.25;exitDx=0;exitDy=0;" parent="1" source="Lb1ExXF3cI1Xt6HcczxU-13" target="Lb1ExXF3cI1Xt6HcczxU-15" edge="1">
          <mxGeometry relative="1" as="geometry">
            <mxPoint x="590" y="230" as="sourcePoint" />
          </mxGeometry>
        </mxCell>
        <mxCell id="Lb1ExXF3cI1Xt6HcczxU-17" value="drop, drop_while" style="whiteSpace=wrap;html=1;shape=partialRectangle;top=0;left=0;bottom=1;right=0;points=[[0,1],[1,1]];fillColor=none;align=center;verticalAlign=bottom;routingCenterY=0.5;snapToPoint=1;recursiveResize=0;autosize=1;treeFolding=1;treeMoving=1;newEdgeStyle={&quot;edgeStyle&quot;:&quot;entityRelationEdgeStyle&quot;,&quot;startArrow&quot;:&quot;none&quot;,&quot;endArrow&quot;:&quot;none&quot;,&quot;segment&quot;:10,&quot;curved&quot;:1,&quot;sourcePerimeterSpacing&quot;:0,&quot;targetPerimeterSpacing&quot;:0};" parent="1" vertex="1">
          <mxGeometry x="445" y="340" width="130" height="30" as="geometry" />
        </mxCell>
        <mxCell id="Lb1ExXF3cI1Xt6HcczxU-18" value="" style="edgeStyle=entityRelationEdgeStyle;startArrow=none;endArrow=none;segment=10;curved=1;sourcePerimeterSpacing=0;targetPerimeterSpacing=0;rounded=0;exitX=1;exitY=0.25;exitDx=0;exitDy=0;entryX=0;entryY=1;entryDx=0;entryDy=0;" parent="1" source="Lb1ExXF3cI1Xt6HcczxU-13" target="Lb1ExXF3cI1Xt6HcczxU-17" edge="1">
          <mxGeometry relative="1" as="geometry">
            <mxPoint x="480" y="448" as="sourcePoint" />
            <mxPoint x="550" y="400" as="targetPoint" />
          </mxGeometry>
        </mxCell>
        <mxCell id="Lb1ExXF3cI1Xt6HcczxU-19" value="select" style="whiteSpace=wrap;html=1;rounded=1;arcSize=50;align=center;verticalAlign=middle;strokeWidth=1;autosize=1;spacing=4;treeFolding=1;treeMoving=1;newEdgeStyle={&quot;edgeStyle&quot;:&quot;entityRelationEdgeStyle&quot;,&quot;startArrow&quot;:&quot;none&quot;,&quot;endArrow&quot;:&quot;none&quot;,&quot;segment&quot;:10,&quot;curved&quot;:1,&quot;sourcePerimeterSpacing&quot;:0,&quot;targetPerimeterSpacing&quot;:0};" parent="1" vertex="1">
          <mxGeometry x="345" y="550" width="80" height="30" as="geometry" />
        </mxCell>
        <mxCell id="Lb1ExXF3cI1Xt6HcczxU-20" value="filter" style="whiteSpace=wrap;html=1;shape=partialRectangle;top=0;left=0;bottom=1;right=0;points=[[0,1],[1,1]];fillColor=none;align=center;verticalAlign=bottom;routingCenterY=0.5;snapToPoint=1;recursiveResize=0;autosize=1;treeFolding=1;treeMoving=1;newEdgeStyle={&quot;edgeStyle&quot;:&quot;entityRelationEdgeStyle&quot;,&quot;startArrow&quot;:&quot;none&quot;,&quot;endArrow&quot;:&quot;none&quot;,&quot;segment&quot;:10,&quot;curved&quot;:1,&quot;sourcePerimeterSpacing&quot;:0,&quot;targetPerimeterSpacing&quot;:0};" parent="1" vertex="1">
          <mxGeometry x="480" y="545" width="60" height="30" as="geometry" />
        </mxCell>
        <mxCell id="Lb1ExXF3cI1Xt6HcczxU-21" value="" style="edgeStyle=entityRelationEdgeStyle;startArrow=none;endArrow=none;segment=10;curved=1;sourcePerimeterSpacing=0;targetPerimeterSpacing=0;rounded=0;exitX=1;exitY=0.25;exitDx=0;exitDy=0;" parent="1" source="Lb1ExXF3cI1Xt6HcczxU-19" target="Lb1ExXF3cI1Xt6HcczxU-20" edge="1">
          <mxGeometry relative="1" as="geometry">
            <mxPoint x="570" y="420" as="sourcePoint" />
          </mxGeometry>
        </mxCell>
        <mxCell id="Lb1ExXF3cI1Xt6HcczxU-22" value="stride" style="whiteSpace=wrap;html=1;shape=partialRectangle;top=0;left=0;bottom=1;right=0;points=[[0,1],[1,1]];fillColor=none;align=center;verticalAlign=bottom;routingCenterY=0.5;snapToPoint=1;recursiveResize=0;autosize=1;treeFolding=1;treeMoving=1;newEdgeStyle={&quot;edgeStyle&quot;:&quot;entityRelationEdgeStyle&quot;,&quot;startArrow&quot;:&quot;none&quot;,&quot;endArrow&quot;:&quot;none&quot;,&quot;segment&quot;:10,&quot;curved&quot;:1,&quot;sourcePerimeterSpacing&quot;:0,&quot;targetPerimeterSpacing&quot;:0};" parent="1" vertex="1">
          <mxGeometry x="470" y="580" width="70" height="30" as="geometry" />
        </mxCell>
        <mxCell id="Lb1ExXF3cI1Xt6HcczxU-23" value="" style="edgeStyle=entityRelationEdgeStyle;startArrow=none;endArrow=none;segment=10;curved=1;sourcePerimeterSpacing=0;targetPerimeterSpacing=0;rounded=0;exitX=1;exitY=0.25;exitDx=0;exitDy=0;entryX=0;entryY=1;entryDx=0;entryDy=0;" parent="1" source="Lb1ExXF3cI1Xt6HcczxU-19" target="Lb1ExXF3cI1Xt6HcczxU-22" edge="1">
          <mxGeometry relative="1" as="geometry">
            <mxPoint x="460" y="638" as="sourcePoint" />
            <mxPoint x="530" y="590" as="targetPoint" />
          </mxGeometry>
        </mxCell>
        <mxCell id="Lb1ExXF3cI1Xt6HcczxU-24" value="tokenization" style="whiteSpace=wrap;html=1;rounded=1;arcSize=50;align=center;verticalAlign=middle;strokeWidth=1;autosize=1;spacing=4;treeFolding=1;treeMoving=1;newEdgeStyle={&quot;edgeStyle&quot;:&quot;entityRelationEdgeStyle&quot;,&quot;startArrow&quot;:&quot;none&quot;,&quot;endArrow&quot;:&quot;none&quot;,&quot;segment&quot;:10,&quot;curved&quot;:1,&quot;sourcePerimeterSpacing&quot;:0,&quot;targetPerimeterSpacing&quot;:0};" parent="1" vertex="1">
          <mxGeometry x="290" y="600" width="110" height="30" as="geometry" />
        </mxCell>
        <mxCell id="Lb1ExXF3cI1Xt6HcczxU-25" value="split, lazy_split" style="whiteSpace=wrap;html=1;shape=partialRectangle;top=0;left=0;bottom=1;right=0;points=[[0,1],[1,1]];fillColor=none;align=center;verticalAlign=bottom;routingCenterY=0.5;snapToPoint=1;recursiveResize=0;autosize=1;treeFolding=1;treeMoving=1;newEdgeStyle={&quot;edgeStyle&quot;:&quot;entityRelationEdgeStyle&quot;,&quot;startArrow&quot;:&quot;none&quot;,&quot;endArrow&quot;:&quot;none&quot;,&quot;segment&quot;:10,&quot;curved&quot;:1,&quot;sourcePerimeterSpacing&quot;:0,&quot;targetPerimeterSpacing&quot;:0};" parent="1" vertex="1">
          <mxGeometry x="440" y="610" width="120" height="30" as="geometry" />
        </mxCell>
        <mxCell id="Lb1ExXF3cI1Xt6HcczxU-26" value="" style="edgeStyle=entityRelationEdgeStyle;startArrow=none;endArrow=none;segment=10;curved=1;sourcePerimeterSpacing=0;targetPerimeterSpacing=0;rounded=0;exitX=1;exitY=0.25;exitDx=0;exitDy=0;" parent="1" source="Lb1ExXF3cI1Xt6HcczxU-24" target="Lb1ExXF3cI1Xt6HcczxU-25" edge="1">
          <mxGeometry relative="1" as="geometry">
            <mxPoint x="500" y="520" as="sourcePoint" />
          </mxGeometry>
        </mxCell>
        <mxCell id="Lb1ExXF3cI1Xt6HcczxU-27" value="chunk, chunk_by" style="whiteSpace=wrap;html=1;shape=partialRectangle;top=0;left=0;bottom=1;right=0;points=[[0,1],[1,1]];fillColor=none;align=center;verticalAlign=bottom;routingCenterY=0.5;snapToPoint=1;recursiveResize=0;autosize=1;treeFolding=1;treeMoving=1;newEdgeStyle={&quot;edgeStyle&quot;:&quot;entityRelationEdgeStyle&quot;,&quot;startArrow&quot;:&quot;none&quot;,&quot;endArrow&quot;:&quot;none&quot;,&quot;segment&quot;:10,&quot;curved&quot;:1,&quot;sourcePerimeterSpacing&quot;:0,&quot;targetPerimeterSpacing&quot;:0};" parent="1" vertex="1">
          <mxGeometry x="430" y="640" width="130" height="30" as="geometry" />
        </mxCell>
        <mxCell id="Lb1ExXF3cI1Xt6HcczxU-28" value="" style="edgeStyle=entityRelationEdgeStyle;startArrow=none;endArrow=none;segment=10;curved=1;sourcePerimeterSpacing=0;targetPerimeterSpacing=0;rounded=0;exitX=1;exitY=0.25;exitDx=0;exitDy=0;entryX=0;entryY=1;entryDx=0;entryDy=0;" parent="1" source="Lb1ExXF3cI1Xt6HcczxU-24" target="Lb1ExXF3cI1Xt6HcczxU-27" edge="1">
          <mxGeometry relative="1" as="geometry">
            <mxPoint x="390" y="738" as="sourcePoint" />
            <mxPoint x="460" y="690" as="targetPoint" />
          </mxGeometry>
        </mxCell>
        <mxCell id="Lb1ExXF3cI1Xt6HcczxU-29" value="function" style="whiteSpace=wrap;html=1;rounded=1;arcSize=50;align=center;verticalAlign=middle;strokeWidth=1;autosize=1;spacing=4;treeFolding=1;treeMoving=1;newEdgeStyle={&quot;edgeStyle&quot;:&quot;entityRelationEdgeStyle&quot;,&quot;startArrow&quot;:&quot;none&quot;,&quot;endArrow&quot;:&quot;none&quot;,&quot;segment&quot;:10,&quot;curved&quot;:1,&quot;sourcePerimeterSpacing&quot;:0,&quot;targetPerimeterSpacing&quot;:0};" parent="1" vertex="1">
          <mxGeometry x="140" y="430" width="90" height="30" as="geometry" />
        </mxCell>
        <mxCell id="Lb1ExXF3cI1Xt6HcczxU-30" value="transform" style="whiteSpace=wrap;html=1;shape=partialRectangle;top=0;left=0;bottom=1;right=0;points=[[0,1],[1,1]];fillColor=none;align=center;verticalAlign=bottom;routingCenterY=0.5;snapToPoint=1;recursiveResize=0;autosize=1;treeFolding=1;treeMoving=1;newEdgeStyle={&quot;edgeStyle&quot;:&quot;entityRelationEdgeStyle&quot;,&quot;startArrow&quot;:&quot;none&quot;,&quot;endArrow&quot;:&quot;none&quot;,&quot;segment&quot;:10,&quot;curved&quot;:1,&quot;sourcePerimeterSpacing&quot;:0,&quot;targetPerimeterSpacing&quot;:0};" parent="1" vertex="1">
          <mxGeometry x="25" y="360" width="90" height="30" as="geometry" />
        </mxCell>
        <mxCell id="Lb1ExXF3cI1Xt6HcczxU-31" value="" style="edgeStyle=entityRelationEdgeStyle;startArrow=none;endArrow=none;segment=10;curved=1;sourcePerimeterSpacing=0;targetPerimeterSpacing=0;rounded=0;exitX=0.021;exitY=0.118;exitDx=0;exitDy=0;exitPerimeter=0;" parent="1" source="Lb1ExXF3cI1Xt6HcczxU-29" target="Lb1ExXF3cI1Xt6HcczxU-30" edge="1">
          <mxGeometry relative="1" as="geometry">
            <mxPoint x="460" y="30" as="sourcePoint" />
          </mxGeometry>
        </mxCell>
        <mxCell id="Lb1ExXF3cI1Xt6HcczxU-32" value="adjacent_transform" style="whiteSpace=wrap;html=1;shape=partialRectangle;top=0;left=0;bottom=1;right=0;points=[[0,1],[1,1]];fillColor=none;align=center;verticalAlign=bottom;routingCenterY=0.5;snapToPoint=1;recursiveResize=0;autosize=1;treeFolding=1;treeMoving=1;newEdgeStyle={&quot;edgeStyle&quot;:&quot;entityRelationEdgeStyle&quot;,&quot;startArrow&quot;:&quot;none&quot;,&quot;endArrow&quot;:&quot;none&quot;,&quot;segment&quot;:10,&quot;curved&quot;:1,&quot;sourcePerimeterSpacing&quot;:0,&quot;targetPerimeterSpacing&quot;:0};" parent="1" vertex="1">
          <mxGeometry x="-20" y="390" width="140" height="30" as="geometry" />
        </mxCell>
        <mxCell id="Lb1ExXF3cI1Xt6HcczxU-33" value="" style="edgeStyle=entityRelationEdgeStyle;startArrow=none;endArrow=none;segment=10;curved=1;sourcePerimeterSpacing=0;targetPerimeterSpacing=0;rounded=0;exitX=0;exitY=0.25;exitDx=0;exitDy=0;entryX=1;entryY=1;entryDx=0;entryDy=0;" parent="1" source="Lb1ExXF3cI1Xt6HcczxU-29" target="Lb1ExXF3cI1Xt6HcczxU-32" edge="1">
          <mxGeometry relative="1" as="geometry">
            <mxPoint x="350" y="248" as="sourcePoint" />
            <mxPoint x="420" y="200" as="targetPoint" />
          </mxGeometry>
        </mxCell>
        <mxCell id="Lb1ExXF3cI1Xt6HcczxU-35" value="" style="edgeStyle=entityRelationEdgeStyle;startArrow=none;endArrow=none;segment=10;curved=1;sourcePerimeterSpacing=0;targetPerimeterSpacing=0;rounded=0;entryX=0;entryY=1;entryDx=0;entryDy=0;" parent="1" source="Lb1ExXF3cI1Xt6HcczxU-13" target="Lb1ExXF3cI1Xt6HcczxU-36" edge="1">
          <mxGeometry relative="1" as="geometry">
            <mxPoint x="430" y="458" as="sourcePoint" />
            <mxPoint x="470" y="455" as="targetPoint" />
          </mxGeometry>
        </mxCell>
        <mxCell id="Lb1ExXF3cI1Xt6HcczxU-36" value="count" style="whiteSpace=wrap;html=1;shape=partialRectangle;top=0;left=0;bottom=1;right=0;points=[[0,1],[1,1]];fillColor=none;align=center;verticalAlign=bottom;routingCenterY=0.5;snapToPoint=1;recursiveResize=0;autosize=1;treeFolding=1;treeMoving=1;newEdgeStyle={&quot;edgeStyle&quot;:&quot;entityRelationEdgeStyle&quot;,&quot;startArrow&quot;:&quot;none&quot;,&quot;endArrow&quot;:&quot;none&quot;,&quot;segment&quot;:10,&quot;curved&quot;:1,&quot;sourcePerimeterSpacing&quot;:0,&quot;targetPerimeterSpacing&quot;:0};" parent="1" vertex="1">
          <mxGeometry x="450" y="400" width="70" height="30" as="geometry" />
        </mxCell>
        <mxCell id="Lb1ExXF3cI1Xt6HcczxU-37" value="" style="edgeStyle=entityRelationEdgeStyle;startArrow=none;endArrow=none;segment=10;curved=1;sourcePerimeterSpacing=0;targetPerimeterSpacing=0;rounded=0;entryX=0.75;entryY=1;entryDx=0;entryDy=0;exitX=0.5;exitY=0;exitDx=0;exitDy=0;" parent="1" source="Lb1ExXF3cI1Xt6HcczxU-12" target="Lb1ExXF3cI1Xt6HcczxU-29" edge="1">
          <mxGeometry relative="1" as="geometry">
            <mxPoint x="320" y="520" as="sourcePoint" />
            <mxPoint x="340" y="465" as="targetPoint" />
          </mxGeometry>
        </mxCell>
        <mxCell id="Lb1ExXF3cI1Xt6HcczxU-38" value="" style="edgeStyle=entityRelationEdgeStyle;startArrow=none;endArrow=none;segment=10;curved=1;sourcePerimeterSpacing=0;targetPerimeterSpacing=0;rounded=0;entryX=0.004;entryY=0.629;entryDx=0;entryDy=0;entryPerimeter=0;" parent="1" source="Lb1ExXF3cI1Xt6HcczxU-12" target="Lb1ExXF3cI1Xt6HcczxU-57" edge="1">
          <mxGeometry relative="1" as="geometry">
            <mxPoint x="330" y="530" as="sourcePoint" />
            <mxPoint x="350" y="475" as="targetPoint" />
          </mxGeometry>
        </mxCell>
        <mxCell id="Lb1ExXF3cI1Xt6HcczxU-39" value="" style="edgeStyle=entityRelationEdgeStyle;startArrow=none;endArrow=none;segment=10;curved=1;sourcePerimeterSpacing=0;targetPerimeterSpacing=0;rounded=0;entryX=0.077;entryY=0.086;entryDx=0;entryDy=0;entryPerimeter=0;exitX=0.733;exitY=0.957;exitDx=0;exitDy=0;exitPerimeter=0;" parent="1" source="Lb1ExXF3cI1Xt6HcczxU-12" target="Lb1ExXF3cI1Xt6HcczxU-24" edge="1">
          <mxGeometry relative="1" as="geometry">
            <mxPoint x="590" y="740" as="sourcePoint" />
            <mxPoint x="610" y="685" as="targetPoint" />
          </mxGeometry>
        </mxCell>
        <mxCell id="Lb1ExXF3cI1Xt6HcczxU-44" value="multiple-&amp;gt;single" style="whiteSpace=wrap;html=1;rounded=1;arcSize=50;align=center;verticalAlign=middle;strokeWidth=1;autosize=1;spacing=4;treeFolding=1;treeMoving=1;newEdgeStyle={&quot;edgeStyle&quot;:&quot;entityRelationEdgeStyle&quot;,&quot;startArrow&quot;:&quot;none&quot;,&quot;endArrow&quot;:&quot;none&quot;,&quot;segment&quot;:10,&quot;curved&quot;:1,&quot;sourcePerimeterSpacing&quot;:0,&quot;targetPerimeterSpacing&quot;:0};" parent="1" vertex="1">
          <mxGeometry x="145" y="590" width="130" height="30" as="geometry" />
        </mxCell>
        <mxCell id="Lb1ExXF3cI1Xt6HcczxU-45" value="join, join_with" style="whiteSpace=wrap;html=1;shape=partialRectangle;top=0;left=0;bottom=1;right=0;points=[[0,1],[1,1]];fillColor=none;align=center;verticalAlign=bottom;routingCenterY=0.5;snapToPoint=1;recursiveResize=0;autosize=1;treeFolding=1;treeMoving=1;newEdgeStyle={&quot;edgeStyle&quot;:&quot;entityRelationEdgeStyle&quot;,&quot;startArrow&quot;:&quot;none&quot;,&quot;endArrow&quot;:&quot;none&quot;,&quot;segment&quot;:10,&quot;curved&quot;:1,&quot;sourcePerimeterSpacing&quot;:0,&quot;targetPerimeterSpacing&quot;:0};" parent="1" vertex="1">
          <mxGeometry x="-10" y="595" width="110" height="30" as="geometry" />
        </mxCell>
        <mxCell id="Lb1ExXF3cI1Xt6HcczxU-47" value="zip, zip_transform" style="whiteSpace=wrap;html=1;shape=partialRectangle;top=0;left=0;bottom=1;right=0;points=[[0,1],[1,1]];fillColor=none;align=center;verticalAlign=bottom;routingCenterY=0.5;snapToPoint=1;recursiveResize=0;autosize=1;treeFolding=1;treeMoving=1;newEdgeStyle={&quot;edgeStyle&quot;:&quot;entityRelationEdgeStyle&quot;,&quot;startArrow&quot;:&quot;none&quot;,&quot;endArrow&quot;:&quot;none&quot;,&quot;segment&quot;:10,&quot;curved&quot;:1,&quot;sourcePerimeterSpacing&quot;:0,&quot;targetPerimeterSpacing&quot;:0};" parent="1" vertex="1">
          <mxGeometry x="-25" y="565" width="140" height="30" as="geometry" />
        </mxCell>
        <mxCell id="Lb1ExXF3cI1Xt6HcczxU-49" value="sliding" style="whiteSpace=wrap;html=1;rounded=1;arcSize=50;align=center;verticalAlign=middle;strokeWidth=1;autosize=1;spacing=4;treeFolding=1;treeMoving=1;newEdgeStyle={&quot;edgeStyle&quot;:&quot;entityRelationEdgeStyle&quot;,&quot;startArrow&quot;:&quot;none&quot;,&quot;endArrow&quot;:&quot;none&quot;,&quot;segment&quot;:10,&quot;curved&quot;:1,&quot;sourcePerimeterSpacing&quot;:0,&quot;targetPerimeterSpacing&quot;:0};" parent="1" vertex="1">
          <mxGeometry x="105" y="480" width="80" height="30" as="geometry" />
        </mxCell>
        <mxCell id="Lb1ExXF3cI1Xt6HcczxU-50" value="slide" style="whiteSpace=wrap;html=1;shape=partialRectangle;top=0;left=0;bottom=1;right=0;points=[[0,1],[1,1]];fillColor=none;align=center;verticalAlign=bottom;routingCenterY=0.5;snapToPoint=1;recursiveResize=0;autosize=1;treeFolding=1;treeMoving=1;newEdgeStyle={&quot;edgeStyle&quot;:&quot;entityRelationEdgeStyle&quot;,&quot;startArrow&quot;:&quot;none&quot;,&quot;endArrow&quot;:&quot;none&quot;,&quot;segment&quot;:10,&quot;curved&quot;:1,&quot;sourcePerimeterSpacing&quot;:0,&quot;targetPerimeterSpacing&quot;:0};" parent="1" vertex="1">
          <mxGeometry x="10" y="450" width="70" height="30" as="geometry" />
        </mxCell>
        <mxCell id="Lb1ExXF3cI1Xt6HcczxU-52" value="adjacent" style="whiteSpace=wrap;html=1;shape=partialRectangle;top=0;left=0;bottom=1;right=0;points=[[0,1],[1,1]];fillColor=none;align=center;verticalAlign=bottom;routingCenterY=0.5;snapToPoint=1;recursiveResize=0;autosize=1;treeFolding=1;treeMoving=1;newEdgeStyle={&quot;edgeStyle&quot;:&quot;entityRelationEdgeStyle&quot;,&quot;startArrow&quot;:&quot;none&quot;,&quot;endArrow&quot;:&quot;none&quot;,&quot;segment&quot;:10,&quot;curved&quot;:1,&quot;sourcePerimeterSpacing&quot;:0,&quot;targetPerimeterSpacing&quot;:0};" parent="1" vertex="1">
          <mxGeometry x="-10" y="480" width="90" height="30" as="geometry" />
        </mxCell>
        <mxCell id="Lb1ExXF3cI1Xt6HcczxU-54" value="range/view" style="ellipse;whiteSpace=wrap;html=1;align=center;newEdgeStyle={&quot;edgeStyle&quot;:&quot;entityRelationEdgeStyle&quot;,&quot;startArrow&quot;:&quot;none&quot;,&quot;endArrow&quot;:&quot;none&quot;,&quot;segment&quot;:10,&quot;curved&quot;:1,&quot;sourcePerimeterSpacing&quot;:0,&quot;targetPerimeterSpacing&quot;:0};treeFolding=1;treeMoving=1;strokeWidth=2;" parent="1" vertex="1">
          <mxGeometry x="95" y="525" width="100" height="40" as="geometry" />
        </mxCell>
        <mxCell id="Lb1ExXF3cI1Xt6HcczxU-55" value="cartesian_product" style="whiteSpace=wrap;html=1;shape=partialRectangle;top=0;left=0;bottom=1;right=0;points=[[0,1],[1,1]];fillColor=none;align=center;verticalAlign=bottom;routingCenterY=0.5;snapToPoint=1;recursiveResize=0;autosize=1;treeFolding=1;treeMoving=1;newEdgeStyle={&quot;edgeStyle&quot;:&quot;entityRelationEdgeStyle&quot;,&quot;startArrow&quot;:&quot;none&quot;,&quot;endArrow&quot;:&quot;none&quot;,&quot;segment&quot;:10,&quot;curved&quot;:1,&quot;sourcePerimeterSpacing&quot;:0,&quot;targetPerimeterSpacing&quot;:0};" parent="1" vertex="1">
          <mxGeometry x="-20" y="620" width="140" height="30" as="geometry" />
        </mxCell>
        <mxCell id="Lb1ExXF3cI1Xt6HcczxU-57" value="projection" style="whiteSpace=wrap;html=1;rounded=1;arcSize=50;align=center;verticalAlign=middle;strokeWidth=1;autosize=1;spacing=4;treeFolding=1;treeMoving=1;newEdgeStyle={&quot;edgeStyle&quot;:&quot;entityRelationEdgeStyle&quot;,&quot;startArrow&quot;:&quot;none&quot;,&quot;endArrow&quot;:&quot;none&quot;,&quot;segment&quot;:10,&quot;curved&quot;:1,&quot;sourcePerimeterSpacing&quot;:0,&quot;targetPerimeterSpacing&quot;:0};" parent="1" vertex="1">
          <mxGeometry x="345" y="495" width="100" height="30" as="geometry" />
        </mxCell>
        <mxCell id="Lb1ExXF3cI1Xt6HcczxU-58" value="keys" style="whiteSpace=wrap;html=1;shape=partialRectangle;top=0;left=0;bottom=1;right=0;points=[[0,1],[1,1]];fillColor=none;align=center;verticalAlign=bottom;routingCenterY=0.5;snapToPoint=1;recursiveResize=0;autosize=1;treeFolding=1;treeMoving=1;newEdgeStyle={&quot;edgeStyle&quot;:&quot;entityRelationEdgeStyle&quot;,&quot;startArrow&quot;:&quot;none&quot;,&quot;endArrow&quot;:&quot;none&quot;,&quot;segment&quot;:10,&quot;curved&quot;:1,&quot;sourcePerimeterSpacing&quot;:0,&quot;targetPerimeterSpacing&quot;:0};" parent="1" vertex="1">
          <mxGeometry x="490" y="440" width="70" height="30" as="geometry" />
        </mxCell>
        <mxCell id="Lb1ExXF3cI1Xt6HcczxU-59" value="" style="edgeStyle=entityRelationEdgeStyle;startArrow=none;endArrow=none;segment=10;curved=1;sourcePerimeterSpacing=0;targetPerimeterSpacing=0;rounded=0;exitX=1;exitY=0.25;exitDx=0;exitDy=0;" parent="1" source="Lb1ExXF3cI1Xt6HcczxU-57" target="Lb1ExXF3cI1Xt6HcczxU-58" edge="1">
          <mxGeometry relative="1" as="geometry">
            <mxPoint x="755" y="340" as="sourcePoint" />
          </mxGeometry>
        </mxCell>
        <mxCell id="Lb1ExXF3cI1Xt6HcczxU-60" value="values" style="whiteSpace=wrap;html=1;shape=partialRectangle;top=0;left=0;bottom=1;right=0;points=[[0,1],[1,1]];fillColor=none;align=center;verticalAlign=bottom;routingCenterY=0.5;snapToPoint=1;recursiveResize=0;autosize=1;treeFolding=1;treeMoving=1;newEdgeStyle={&quot;edgeStyle&quot;:&quot;entityRelationEdgeStyle&quot;,&quot;startArrow&quot;:&quot;none&quot;,&quot;endArrow&quot;:&quot;none&quot;,&quot;segment&quot;:10,&quot;curved&quot;:1,&quot;sourcePerimeterSpacing&quot;:0,&quot;targetPerimeterSpacing&quot;:0};" parent="1" vertex="1">
          <mxGeometry x="470" y="480" width="80" height="30" as="geometry" />
        </mxCell>
        <mxCell id="Lb1ExXF3cI1Xt6HcczxU-61" value="" style="edgeStyle=entityRelationEdgeStyle;startArrow=none;endArrow=none;segment=10;curved=1;targetPerimeterSpacing=0;rounded=0;entryX=0;entryY=1;entryDx=0;entryDy=0;" parent="1" source="Lb1ExXF3cI1Xt6HcczxU-57" target="Lb1ExXF3cI1Xt6HcczxU-60" edge="1">
          <mxGeometry relative="1" as="geometry">
            <mxPoint x="645" y="558" as="sourcePoint" />
            <mxPoint x="715" y="510" as="targetPoint" />
          </mxGeometry>
        </mxCell>
        <mxCell id="Lb1ExXF3cI1Xt6HcczxU-65" value="" style="edgeStyle=entityRelationEdgeStyle;startArrow=none;endArrow=none;segment=10;curved=1;sourcePerimeterSpacing=0;targetPerimeterSpacing=0;rounded=0;entryX=0;entryY=1;entryDx=0;entryDy=0;" parent="1" source="Lb1ExXF3cI1Xt6HcczxU-57" target="Lb1ExXF3cI1Xt6HcczxU-64" edge="1">
          <mxGeometry relative="1" as="geometry">
            <mxPoint x="615" y="573" as="sourcePoint" />
            <mxPoint x="710" y="605" as="targetPoint" />
          </mxGeometry>
        </mxCell>
        <mxCell id="Lb1ExXF3cI1Xt6HcczxU-68" value="" style="edgeStyle=entityRelationEdgeStyle;startArrow=none;endArrow=none;segment=10;curved=1;sourcePerimeterSpacing=0;targetPerimeterSpacing=0;rounded=0;entryX=0;entryY=0.25;entryDx=0;entryDy=0;exitX=1;exitY=0.5;exitDx=0;exitDy=0;" parent="1" source="Lb1ExXF3cI1Xt6HcczxU-12" target="Lb1ExXF3cI1Xt6HcczxU-19" edge="1">
          <mxGeometry relative="1" as="geometry">
            <mxPoint x="620" y="770" as="sourcePoint" />
            <mxPoint x="640" y="715" as="targetPoint" />
          </mxGeometry>
        </mxCell>
        <mxCell id="Lb1ExXF3cI1Xt6HcczxU-69" value="" style="edgeStyle=entityRelationEdgeStyle;startArrow=none;endArrow=none;segment=10;curved=1;sourcePerimeterSpacing=0;targetPerimeterSpacing=0;rounded=0;exitX=0.5;exitY=1;exitDx=0;exitDy=0;entryX=0.5;entryY=0;entryDx=0;entryDy=0;" parent="1" source="Lb1ExXF3cI1Xt6HcczxU-70" target="Lb1ExXF3cI1Xt6HcczxU-12" edge="1">
          <mxGeometry relative="1" as="geometry">
            <mxPoint x="60" y="589" as="sourcePoint" />
            <mxPoint x="60" y="511" as="targetPoint" />
          </mxGeometry>
        </mxCell>
        <mxCell id="Lb1ExXF3cI1Xt6HcczxU-102" value="generate" style="edgeLabel;html=1;align=center;verticalAlign=middle;resizable=0;points=[];" parent="Lb1ExXF3cI1Xt6HcczxU-69" vertex="1" connectable="0">
          <mxGeometry x="-0.2519" y="2" relative="1" as="geometry">
            <mxPoint as="offset" />
          </mxGeometry>
        </mxCell>
        <mxCell id="Lb1ExXF3cI1Xt6HcczxU-70" value="generate" style="whiteSpace=wrap;html=1;rounded=1;arcSize=50;align=center;verticalAlign=middle;strokeWidth=1;autosize=1;spacing=4;treeFolding=1;treeMoving=1;newEdgeStyle={&quot;edgeStyle&quot;:&quot;entityRelationEdgeStyle&quot;,&quot;startArrow&quot;:&quot;none&quot;,&quot;endArrow&quot;:&quot;none&quot;,&quot;segment&quot;:10,&quot;curved&quot;:1,&quot;sourcePerimeterSpacing&quot;:0,&quot;targetPerimeterSpacing&quot;:0};" parent="1" vertex="1">
          <mxGeometry x="240" y="420" width="70" height="30" as="geometry" />
        </mxCell>
        <mxCell id="Lb1ExXF3cI1Xt6HcczxU-72" value="istream" style="whiteSpace=wrap;html=1;shape=partialRectangle;top=0;left=0;bottom=1;right=0;points=[[0,1],[1,1]];fillColor=none;align=center;verticalAlign=bottom;routingCenterY=0.5;snapToPoint=1;recursiveResize=0;autosize=1;treeFolding=1;treeMoving=1;newEdgeStyle={&quot;edgeStyle&quot;:&quot;entityRelationEdgeStyle&quot;,&quot;startArrow&quot;:&quot;none&quot;,&quot;endArrow&quot;:&quot;none&quot;,&quot;segment&quot;:10,&quot;curved&quot;:1,&quot;sourcePerimeterSpacing&quot;:0,&quot;targetPerimeterSpacing&quot;:0};" parent="1" vertex="1">
          <mxGeometry x="300" y="340" width="80" height="30" as="geometry" />
        </mxCell>
        <mxCell id="Lb1ExXF3cI1Xt6HcczxU-74" value="empty, single" style="whiteSpace=wrap;html=1;shape=partialRectangle;top=0;left=0;bottom=1;right=0;points=[[0,1],[1,1]];fillColor=none;align=center;verticalAlign=bottom;routingCenterY=0.5;snapToPoint=1;recursiveResize=0;autosize=1;treeFolding=1;treeMoving=1;newEdgeStyle={&quot;edgeStyle&quot;:&quot;entityRelationEdgeStyle&quot;,&quot;startArrow&quot;:&quot;none&quot;,&quot;endArrow&quot;:&quot;none&quot;,&quot;segment&quot;:10,&quot;curved&quot;:1,&quot;sourcePerimeterSpacing&quot;:0,&quot;targetPerimeterSpacing&quot;:0};" parent="1" vertex="1">
          <mxGeometry x="300" y="370" width="110" height="30" as="geometry" />
        </mxCell>
        <mxCell id="Lb1ExXF3cI1Xt6HcczxU-77" value="iota, repeat" style="whiteSpace=wrap;html=1;shape=partialRectangle;top=0;left=0;bottom=1;right=0;points=[[0,1],[1,1]];fillColor=none;align=center;verticalAlign=bottom;routingCenterY=0.5;snapToPoint=1;recursiveResize=0;autosize=1;treeFolding=1;treeMoving=1;newEdgeStyle={&quot;edgeStyle&quot;:&quot;entityRelationEdgeStyle&quot;,&quot;startArrow&quot;:&quot;none&quot;,&quot;endArrow&quot;:&quot;none&quot;,&quot;segment&quot;:10,&quot;curved&quot;:1,&quot;sourcePerimeterSpacing&quot;:0,&quot;targetPerimeterSpacing&quot;:0};" parent="1" vertex="1">
          <mxGeometry x="145" y="360" width="100" height="30" as="geometry" />
        </mxCell>
        <mxCell id="Lb1ExXF3cI1Xt6HcczxU-64" value="elements" style="whiteSpace=wrap;html=1;shape=partialRectangle;top=0;left=0;bottom=1;right=0;points=[[0,1],[1,1]];fillColor=none;align=center;verticalAlign=bottom;routingCenterY=0.5;snapToPoint=1;recursiveResize=0;autosize=1;treeFolding=1;treeMoving=1;newEdgeStyle={&quot;edgeStyle&quot;:&quot;entityRelationEdgeStyle&quot;,&quot;startArrow&quot;:&quot;none&quot;,&quot;endArrow&quot;:&quot;none&quot;,&quot;segment&quot;:10,&quot;curved&quot;:1,&quot;sourcePerimeterSpacing&quot;:0,&quot;targetPerimeterSpacing&quot;:0};" parent="1" vertex="1">
          <mxGeometry x="480" y="510" width="90" height="35" as="geometry" />
        </mxCell>
        <mxCell id="Lb1ExXF3cI1Xt6HcczxU-88" value="" style="edgeStyle=entityRelationEdgeStyle;startArrow=none;endArrow=none;segment=10;curved=1;sourcePerimeterSpacing=0;targetPerimeterSpacing=0;rounded=0;exitX=0;exitY=1;exitDx=0;exitDy=0;entryX=0.448;entryY=-0.033;entryDx=0;entryDy=0;entryPerimeter=0;" parent="1" source="Lb1ExXF3cI1Xt6HcczxU-72" target="Lb1ExXF3cI1Xt6HcczxU-70" edge="1">
          <mxGeometry relative="1" as="geometry">
            <mxPoint x="275" y="300" as="sourcePoint" />
            <mxPoint x="260" y="340" as="targetPoint" />
          </mxGeometry>
        </mxCell>
        <mxCell id="Lb1ExXF3cI1Xt6HcczxU-90" value="" style="edgeStyle=entityRelationEdgeStyle;startArrow=none;endArrow=none;segment=10;curved=1;sourcePerimeterSpacing=0;targetPerimeterSpacing=0;rounded=0;entryX=0.5;entryY=0;entryDx=0;entryDy=0;exitX=1;exitY=1;exitDx=0;exitDy=0;" parent="1" source="Lb1ExXF3cI1Xt6HcczxU-77" target="Lb1ExXF3cI1Xt6HcczxU-70" edge="1">
          <mxGeometry relative="1" as="geometry">
            <mxPoint x="260" y="379" as="sourcePoint" />
            <mxPoint x="252.5" y="420" as="targetPoint" />
          </mxGeometry>
        </mxCell>
        <mxCell id="Lb1ExXF3cI1Xt6HcczxU-91" value="" style="edgeStyle=entityRelationEdgeStyle;startArrow=none;endArrow=none;segment=10;curved=1;sourcePerimeterSpacing=0;targetPerimeterSpacing=0;rounded=0;entryX=0;entryY=1;entryDx=0;entryDy=0;" parent="1" target="Lb1ExXF3cI1Xt6HcczxU-74" edge="1">
          <mxGeometry relative="1" as="geometry">
            <mxPoint x="270" y="420" as="sourcePoint" />
            <mxPoint x="290" y="390" as="targetPoint" />
          </mxGeometry>
        </mxCell>
        <mxCell id="Lb1ExXF3cI1Xt6HcczxU-92" value="" style="edgeStyle=entityRelationEdgeStyle;startArrow=none;endArrow=none;segment=10;curved=1;sourcePerimeterSpacing=0;targetPerimeterSpacing=0;rounded=0;exitX=1;exitY=0.5;exitDx=0;exitDy=0;" parent="1" source="Lb1ExXF3cI1Xt6HcczxU-49" target="Lb1ExXF3cI1Xt6HcczxU-12" edge="1">
          <mxGeometry relative="1" as="geometry">
            <mxPoint x="35" y="728" as="sourcePoint" />
            <mxPoint x="65" y="650" as="targetPoint" />
          </mxGeometry>
        </mxCell>
        <mxCell id="Lb1ExXF3cI1Xt6HcczxU-93" value="" style="edgeStyle=entityRelationEdgeStyle;startArrow=none;endArrow=none;segment=10;curved=1;sourcePerimeterSpacing=0;targetPerimeterSpacing=0;rounded=0;exitX=1;exitY=1;exitDx=0;exitDy=0;entryX=0;entryY=1;entryDx=0;entryDy=0;" parent="1" source="Lb1ExXF3cI1Xt6HcczxU-52" edge="1">
          <mxGeometry relative="1" as="geometry">
            <mxPoint x="75" y="573" as="sourcePoint" />
            <mxPoint x="105" y="495" as="targetPoint" />
          </mxGeometry>
        </mxCell>
        <mxCell id="Lb1ExXF3cI1Xt6HcczxU-94" value="" style="edgeStyle=entityRelationEdgeStyle;startArrow=none;endArrow=none;segment=10;curved=1;sourcePerimeterSpacing=0;targetPerimeterSpacing=0;rounded=0;entryX=0;entryY=1;entryDx=0;entryDy=0;" parent="1" source="Lb1ExXF3cI1Xt6HcczxU-50" edge="1">
          <mxGeometry relative="1" as="geometry">
            <mxPoint x="75" y="573" as="sourcePoint" />
            <mxPoint x="105" y="495" as="targetPoint" />
          </mxGeometry>
        </mxCell>
        <mxCell id="Lb1ExXF3cI1Xt6HcczxU-95" value="" style="edgeStyle=entityRelationEdgeStyle;startArrow=none;endArrow=none;segment=10;curved=1;sourcePerimeterSpacing=0;targetPerimeterSpacing=0;rounded=0;exitX=0.462;exitY=0;exitDx=0;exitDy=0;entryX=0.55;entryY=1.039;entryDx=0;entryDy=0;exitPerimeter=0;entryPerimeter=0;strokeWidth=2;" parent="1" source="Lb1ExXF3cI1Xt6HcczxU-44" target="Lb1ExXF3cI1Xt6HcczxU-54" edge="1">
          <mxGeometry relative="1" as="geometry">
            <mxPoint x="115" y="658" as="sourcePoint" />
            <mxPoint x="145" y="580" as="targetPoint" />
          </mxGeometry>
        </mxCell>
        <mxCell id="Lb1ExXF3cI1Xt6HcczxU-99" value="input1" style="edgeLabel;html=1;align=center;verticalAlign=middle;resizable=0;points=[];" parent="Lb1ExXF3cI1Xt6HcczxU-95" vertex="1" connectable="0">
          <mxGeometry x="0.056" y="1" relative="1" as="geometry">
            <mxPoint as="offset" />
          </mxGeometry>
        </mxCell>
        <mxCell id="Lb1ExXF3cI1Xt6HcczxU-96" value="" style="edgeStyle=entityRelationEdgeStyle;startArrow=none;endArrow=none;segment=10;curved=1;sourcePerimeterSpacing=0;targetPerimeterSpacing=0;rounded=0;entryX=0;entryY=1;entryDx=0;entryDy=0;strokeWidth=2;" parent="1" edge="1">
          <mxGeometry relative="1" as="geometry">
            <mxPoint x="200" y="590" as="sourcePoint" />
            <mxPoint x="260" y="530" as="targetPoint" />
          </mxGeometry>
        </mxCell>
        <mxCell id="Lb1ExXF3cI1Xt6HcczxU-98" value="input2" style="edgeLabel;html=1;align=center;verticalAlign=middle;resizable=0;points=[];" parent="Lb1ExXF3cI1Xt6HcczxU-96" vertex="1" connectable="0">
          <mxGeometry x="0.1635" y="-1" relative="1" as="geometry">
            <mxPoint as="offset" />
          </mxGeometry>
        </mxCell>
        <mxCell id="Lb1ExXF3cI1Xt6HcczxU-97" value="" style="edgeStyle=entityRelationEdgeStyle;startArrow=none;endArrow=none;segment=10;curved=1;sourcePerimeterSpacing=0;targetPerimeterSpacing=0;rounded=0;exitX=1;exitY=1;exitDx=0;exitDy=0;entryX=0;entryY=0.5;entryDx=0;entryDy=0;" parent="1" source="Lb1ExXF3cI1Xt6HcczxU-55" target="Lb1ExXF3cI1Xt6HcczxU-44" edge="1">
          <mxGeometry relative="1" as="geometry">
            <mxPoint x="180" y="718" as="sourcePoint" />
            <mxPoint x="210" y="640" as="targetPoint" />
          </mxGeometry>
        </mxCell>
        <mxCell id="Lb1ExXF3cI1Xt6HcczxU-100" value="" style="edgeStyle=entityRelationEdgeStyle;startArrow=none;endArrow=none;segment=10;curved=1;sourcePerimeterSpacing=0;targetPerimeterSpacing=0;rounded=0;entryX=0;entryY=0.5;entryDx=0;entryDy=0;" parent="1" source="Lb1ExXF3cI1Xt6HcczxU-45" target="Lb1ExXF3cI1Xt6HcczxU-44" edge="1">
          <mxGeometry relative="1" as="geometry">
            <mxPoint x="125" y="665" as="sourcePoint" />
            <mxPoint x="160" y="630" as="targetPoint" />
          </mxGeometry>
        </mxCell>
        <mxCell id="Lb1ExXF3cI1Xt6HcczxU-101" value="" style="edgeStyle=entityRelationEdgeStyle;startArrow=none;endArrow=none;segment=10;curved=1;sourcePerimeterSpacing=0;targetPerimeterSpacing=0;rounded=0;entryX=0;entryY=0.5;entryDx=0;entryDy=0;exitX=1;exitY=1;exitDx=0;exitDy=0;" parent="1" source="Lb1ExXF3cI1Xt6HcczxU-47" target="Lb1ExXF3cI1Xt6HcczxU-44" edge="1">
          <mxGeometry relative="1" as="geometry">
            <mxPoint x="110" y="635" as="sourcePoint" />
            <mxPoint x="155" y="615" as="targetPoint" />
          </mxGeometry>
        </mxCell>
      </root>
    </mxGraphModel>
  </diagram>
</mxfile>
